<?xml version="1.0" encoding="UTF-8"?>
<svg version="1.1" xmlns="http://www.w3.org/2000/svg" width="512" height="512">
<path d="M0 0 C1.27781243 -0.00507454 2.55562486 -0.01014909 3.87215889 -0.0153774 C5.2983588 -0.01597909 6.72455876 -0.01647817 8.15075874 -0.01688576 C9.65946253 -0.02089995 11.16816524 -0.0253381 12.67686665 -0.03016531 C16.83341078 -0.04214105 20.9899433 -0.04778155 25.1465013 -0.05234647 C29.62512141 -0.05829858 34.1037276 -0.06990921 38.58233833 -0.08063698 C49.40211079 -0.10516696 60.22188785 -0.11978746 71.04167956 -0.13269705 C74.09615384 -0.13640805 77.15062767 -0.14038134 80.20510149 -0.14444971 C99.16260355 -0.16968139 118.12010631 -0.19173999 137.07762146 -0.20417786 C141.46927963 -0.20710766 145.86093778 -0.21006932 150.2525959 -0.21308327 C151.34415285 -0.21382932 152.4357098 -0.21457537 153.56034423 -0.21534403 C171.25570766 -0.22800646 188.9509708 -0.26124145 206.64628731 -0.3028851 C224.80231635 -0.34526383 242.95829399 -0.36886804 261.11437237 -0.37409842 C271.31305111 -0.37751677 281.51157302 -0.38932206 291.71020317 -0.42220116 C300.39286518 -0.45014682 309.07533823 -0.4612251 317.75804172 -0.4500057 C322.1901162 -0.44480528 326.62179462 -0.44779509 331.05381203 -0.47247124 C335.10907126 -0.49486191 339.1636476 -0.4943041 343.21891798 -0.47526737 C344.68796127 -0.47245298 346.15704987 -0.47814533 347.62601994 -0.4930803 C349.61927603 -0.51211087 351.61276931 -0.49744236 353.60604858 -0.48101807 C355.26849304 -0.48305286 355.26849304 -0.48305286 356.96452224 -0.48512876 C360.90999284 0.34292904 362.43460024 2.04065743 364.92886543 5.13701439 C365.24136543 7.94951439 365.24136543 7.94951439 364.92886543 10.13701439 C369.03440835 10.09398992 369.03440835 10.09398992 372.92886543 9.13701439 C374.82846172 5.76033345 374.82846172 5.76033345 375.92886543 2.13701439 C380.16766843 -0.68885428 383.95252503 -0.63954829 388.92886543 0.13701439 C392.05386543 2.32451439 392.05386543 2.32451439 393.92886543 5.13701439 C393.92886543 6.78701439 393.92886543 8.43701439 393.92886543 10.13701439 C400.52886543 10.13701439 407.12886543 10.13701439 413.92886543 10.13701439 C413.92886543 8.48701439 413.92886543 6.83701439 413.92886543 5.13701439 C415.91062531 2.25219015 417.46888638 0.46626098 420.97632027 -0.32471657 C423.48863282 -0.52629135 425.951567 -0.55592307 428.47183418 -0.52704811 C429.85729187 -0.53422356 429.85729187 -0.53422356 431.2707386 -0.54154396 C433.22328584 -0.54494075 435.17589012 -0.53575374 437.12832832 -0.51484108 C440.08985508 -0.48822388 443.04753907 -0.51451618 446.00894356 -0.54657936 C464.1220414 -0.57791027 464.1220414 -0.57791027 471.92886543 5.13701439 C472.83636543 5.69388939 473.74386543 6.25076439 474.67886543 6.82451439 C480.36983154 12.67356289 484.04710087 19.55441129 484.06587982 27.72566128 C484.07095436 28.89588835 484.07602891 30.06611542 484.08125722 31.27180392 C484.08200386 33.20950227 484.08200386 33.20950227 484.08276558 35.18634605 C484.08678012 36.56774247 484.09121833 37.94913772 484.09604514 39.33053154 C484.10801766 43.13537531 484.11366067 46.94020641 484.11822629 50.74506533 C484.12417989 54.84545514 484.13579043 58.94582976 484.1465168 63.04620934 C484.1710476 72.95387517 484.18566959 82.86154604 484.19857687 92.7692329 C484.20228851 95.56754815 484.20626177 98.3658629 484.21032953 101.16417766 C484.23556737 118.54016898 484.25762121 135.91616109 484.27005768 153.29216671 C484.2729874 157.31767912 484.27594905 161.3431915 484.27896309 165.36870384 C484.27970914 166.3692308 484.28045519 167.36975775 484.28122385 168.4006037 C484.29387502 184.60529285 484.32709433 200.80987221 484.36876492 217.01451004 C484.41119457 233.6506966 484.43475397 250.28682698 484.43997824 266.92306751 C484.44339135 276.26397978 484.45513456 285.60472053 484.48808098 294.94557953 C484.5160969 302.90163676 484.5270741 310.85748733 484.51588552 318.81359006 C484.51070265 322.87162392 484.513561 326.9292251 484.53835106 330.98719597 C484.56088252 334.70657585 484.56007427 338.42521323 484.54114719 342.14460646 C484.53703456 344.11844722 484.55746423 346.09229275 484.57893407 348.06602103 C484.50877178 355.95355761 483.13778364 361.44844348 478.92886543 368.13701439 C478.37199043 369.04451439 477.81511543 369.95201439 477.24136543 370.88701439 C470.75147207 377.20150523 463.6798831 380.29494236 454.73460579 380.25726891 C453.62820174 380.25855054 453.62820174 380.25855054 452.49944609 380.25985807 C450.02122349 380.26150872 447.54306816 380.25599827 445.06485176 380.25053978 C443.29103281 380.25025779 441.51721374 380.25041587 439.74339485 380.25098228 C434.92140206 380.25126981 430.09943402 380.24538031 425.27744699 380.23840833 C420.24057467 380.23216734 415.20370183 380.2315704 410.16682625 380.23038292 C400.62585908 380.22727181 391.08490333 380.21906137 381.5439412 380.20903343 C370.68313665 380.19786547 359.82233156 380.19236012 348.9615227 380.18733799 C326.61729727 380.17687859 304.27308199 380.15928339 281.92886543 380.13701439 C282.1042585 380.82970421 282.27965157 381.52239403 282.46035957 382.23607445 C284.11329006 388.76761295 285.76167768 395.30027909 287.40498543 401.83424568 C288.24996351 405.19329317 289.09668517 408.55188083 289.94742012 411.90947533 C290.92562339 415.77047172 291.89619225 419.63336705 292.86636543 423.49638939 C293.17259834 424.70067589 293.47883125 425.90496239 293.79434395 427.14574242 C294.07463448 428.2666024 294.354925 429.38746239 294.64370918 430.54228783 C295.01677193 432.02121513 295.01677193 432.02121513 295.39737129 433.53001976 C295.92886543 436.13701439 295.92886543 436.13701439 295.92886543 440.13701439 C297.161894 440.09773827 297.161894 440.09773827 298.41983223 440.05766869 C302.15181481 439.95359999 305.88349203 439.88865311 309.61636543 439.82451439 C310.90993965 439.78261986 312.20351387 439.74072533 313.53628731 439.69756126 C315.40703926 439.67339134 315.40703926 439.67339134 317.31558418 439.64873314 C319.03587837 439.60945702 319.03587837 439.60945702 320.79092598 439.56938744 C324.88940943 440.31076875 326.34506711 441.94913427 328.92886543 445.13701439 C329.59292793 447.63701439 329.59292793 447.63701439 329.55386543 450.13701439 C329.56675606 450.96201439 329.57964668 451.78701439 329.59292793 452.63701439 C328.61483583 456.31924347 326.87395594 457.75717684 323.92886543 460.13701439 C321.10681469 460.63027696 318.88800573 460.81500929 316.07217598 460.7719326 C315.28738963 460.77973256 314.50260328 460.78753251 313.69403553 460.79556882 C311.06740588 460.81549417 308.44222427 460.79972299 305.81558418 460.78398705 C303.9313491 460.79076295 302.04712064 460.79966593 300.16290474 460.81053734 C295.04716075 460.83334042 289.93192068 460.82449009 284.81616783 460.80864191 C279.46399 460.79598821 274.11185549 460.80772155 268.75967598 460.81557274 C259.77139726 460.82467083 250.78332391 460.81267713 241.79507637 460.78886986 C231.40152687 460.76165836 221.00846777 460.7704724 210.61493015 460.79800189 C201.69333859 460.82068734 192.77189471 460.82389577 183.85028362 460.81080854 C178.52087617 460.80301096 173.19169926 460.80198097 167.86230659 460.81849098 C162.85197543 460.83292819 157.84227686 460.82292754 152.83201408 460.7940197 C150.9925803 460.7874049 149.15309332 460.78931328 147.31368065 460.80033302 C144.80358531 460.81398502 142.29552057 460.79687903 139.78555489 460.7719326 C138.69192399 460.78866301 138.69192399 460.78866301 137.57619953 460.80573142 C133.67938487 460.73053419 132.05111884 460.23580363 128.97932625 457.753582 C126.74993358 454.90868167 126.24824574 453.69667504 126.30386543 450.13701439 C126.29097481 449.31201439 126.27808418 448.48701439 126.26480293 447.63701439 C127.23206119 443.99557152 129.05036366 442.51680099 131.92886543 440.13701439 C135.06680489 439.56938744 135.06680489 439.56938744 138.54214668 439.64873314 C139.78931465 439.66484642 141.03648262 439.6809597 142.32144356 439.69756126 C143.61501778 439.7394558 144.908592 439.78135033 146.24136543 439.82451439 C147.55427559 439.84707298 148.86718575 439.86963158 150.21988106 439.89287376 C153.45736673 439.95173714 156.69253543 440.03392635 159.92886543 440.13701439 C160.03319893 439.06773705 160.13753242 437.9984597 160.24502754 436.89678001 C160.96826469 431.14367487 162.44100652 425.59213878 163.87027168 419.98076439 C164.15740532 418.83788963 164.44453896 417.69501488 164.74037361 416.51750755 C165.65293502 412.88954183 166.57204905 409.26327364 167.49136543 405.63701439 C168.11354446 403.16837379 168.73529392 400.69962488 169.35659981 398.23076439 C170.87571719 392.19825155 172.40020902 386.16711664 173.92886543 380.13701439 C173.01041155 380.14162335 172.09195766 380.14623232 171.14567184 380.15098095 C148.77708077 380.2614986 126.40853689 380.34418974 104.03973007 380.39607525 C93.22223912 380.42183492 82.40493065 380.45694279 71.58755684 380.51421165 C62.15693073 380.56411498 52.7264368 380.59632166 43.29568231 380.60745686 C38.30409908 380.61396386 33.31289393 380.62921062 28.32143211 380.66566467 C23.61821534 380.69973362 18.91553053 380.7100454 14.21220207 380.7025528 C12.4909367 380.70392248 10.76965259 380.71378993 9.04849434 380.73304176 C-0.33172018 380.83277074 -8.01868614 380.57154567 -16.07113457 375.13701439 C-16.97863457 374.58013939 -17.88613457 374.02326439 -18.82113457 373.44951439 C-24.51210068 367.60046589 -28.18937001 360.71961749 -28.20814896 352.5483675 C-28.2132235 351.37814043 -28.21829804 350.20791336 -28.22352636 349.00222486 C-28.22402412 347.71042596 -28.22452187 346.41862705 -28.22503471 345.08768272 C-28.22904926 343.7062863 -28.23348747 342.32489106 -28.23831427 340.94349724 C-28.25028679 337.13865346 -28.2559298 333.33382237 -28.26049542 329.52896345 C-28.26644903 325.42857364 -28.27805956 321.32819901 -28.28878593 317.22781944 C-28.31331673 307.32015361 -28.32793873 297.41248274 -28.340846 287.50479588 C-28.34455765 284.70648063 -28.34853091 281.90816588 -28.35259867 279.10985112 C-28.37783651 261.73385979 -28.39989035 244.35786768 -28.41232681 226.98186207 C-28.41525653 222.95634966 -28.41821819 218.93083728 -28.42123222 214.90532494 C-28.42197827 213.90479798 -28.42272432 212.90427103 -28.42349298 211.87342507 C-28.43614415 195.66873593 -28.46936346 179.46415657 -28.51103406 163.25951874 C-28.5534637 146.62333217 -28.5770231 129.9872018 -28.58224738 113.35096127 C-28.58566048 104.010049 -28.5974037 94.66930825 -28.63035011 85.32844925 C-28.65836603 77.37239202 -28.66934323 69.41654145 -28.65815465 61.46043872 C-28.65297178 57.40240486 -28.65583013 53.34480368 -28.68062019 49.28683281 C-28.70315166 45.56745293 -28.70234341 41.84881555 -28.68341632 38.12942231 C-28.67930369 36.15558156 -28.69973336 34.18173603 -28.72120321 32.20800775 C-28.65104092 24.32047117 -27.28005277 18.8255853 -23.07113457 12.13701439 C-22.51425957 11.22951439 -21.95738457 10.32201439 -21.38363457 9.38701439 C-15.32965295 3.4966539 -8.4203464 0.01771239 0 0 Z " fill="#B1F5FE" transform="translate(28.071134567260742,25.862985610961914)"/>
<path d="M0 0 C1.27781243 -0.00507454 2.55562486 -0.01014909 3.87215889 -0.0153774 C5.2983588 -0.01597909 6.72455876 -0.01647817 8.15075874 -0.01688576 C9.65946253 -0.02089995 11.16816524 -0.0253381 12.67686665 -0.03016531 C16.83341078 -0.04214105 20.9899433 -0.04778155 25.1465013 -0.05234647 C29.62512141 -0.05829858 34.1037276 -0.06990921 38.58233833 -0.08063698 C49.40211079 -0.10516696 60.22188785 -0.11978746 71.04167956 -0.13269705 C74.09615384 -0.13640805 77.15062767 -0.14038134 80.20510149 -0.14444971 C99.16260355 -0.16968139 118.12010631 -0.19173999 137.07762146 -0.20417786 C141.46927963 -0.20710766 145.86093778 -0.21006932 150.2525959 -0.21308327 C151.34415285 -0.21382932 152.4357098 -0.21457537 153.56034423 -0.21534403 C171.25570766 -0.22800646 188.9509708 -0.26124145 206.64628731 -0.3028851 C224.80231635 -0.34526383 242.95829399 -0.36886804 261.11437237 -0.37409842 C271.31305111 -0.37751677 281.51157302 -0.38932206 291.71020317 -0.42220116 C300.39286518 -0.45014682 309.07533823 -0.4612251 317.75804172 -0.4500057 C322.1901162 -0.44480528 326.62179462 -0.44779509 331.05381203 -0.47247124 C335.10907126 -0.49486191 339.1636476 -0.4943041 343.21891798 -0.47526737 C344.68796127 -0.47245298 346.15704987 -0.47814533 347.62601994 -0.4930803 C349.61927603 -0.51211087 351.61276931 -0.49744236 353.60604858 -0.48101807 C355.26849304 -0.48305286 355.26849304 -0.48305286 356.96452224 -0.48512876 C360.90999284 0.34292904 362.43460024 2.04065743 364.92886543 5.13701439 C365.24136543 7.94951439 365.24136543 7.94951439 364.92886543 10.13701439 C369.03440835 10.09398992 369.03440835 10.09398992 372.92886543 9.13701439 C374.82846172 5.76033345 374.82846172 5.76033345 375.92886543 2.13701439 C380.16766843 -0.68885428 383.95252503 -0.63954829 388.92886543 0.13701439 C392.05386543 2.32451439 392.05386543 2.32451439 393.92886543 5.13701439 C393.92886543 6.78701439 393.92886543 8.43701439 393.92886543 10.13701439 C400.52886543 10.13701439 407.12886543 10.13701439 413.92886543 10.13701439 C413.92886543 8.48701439 413.92886543 6.83701439 413.92886543 5.13701439 C415.91062531 2.25219015 417.46888638 0.46626098 420.97632027 -0.32471657 C423.48863282 -0.52629135 425.951567 -0.55592307 428.47183418 -0.52704811 C429.85729187 -0.53422356 429.85729187 -0.53422356 431.2707386 -0.54154396 C433.22328584 -0.54494075 435.17589012 -0.53575374 437.12832832 -0.51484108 C440.08985508 -0.48822388 443.04753907 -0.51451618 446.00894356 -0.54657936 C464.1220414 -0.57791027 464.1220414 -0.57791027 471.92886543 5.13701439 C472.83636543 5.69388939 473.74386543 6.25076439 474.67886543 6.82451439 C480.36983154 12.67356289 484.04710087 19.55441129 484.06587982 27.72566128 C484.07095436 28.89588835 484.07602891 30.06611542 484.08125722 31.27180392 C484.08200386 33.20950227 484.08200386 33.20950227 484.08276558 35.18634605 C484.08678012 36.56774247 484.09121833 37.94913772 484.09604514 39.33053154 C484.10801766 43.13537531 484.11366067 46.94020641 484.11822629 50.74506533 C484.12417989 54.84545514 484.13579043 58.94582976 484.1465168 63.04620934 C484.1710476 72.95387517 484.18566959 82.86154604 484.19857687 92.7692329 C484.20228851 95.56754815 484.20626177 98.3658629 484.21032953 101.16417766 C484.23556737 118.54016898 484.25762121 135.91616109 484.27005768 153.29216671 C484.2729874 157.31767912 484.27594905 161.3431915 484.27896309 165.36870384 C484.27970914 166.3692308 484.28045519 167.36975775 484.28122385 168.4006037 C484.29387502 184.60529285 484.32709433 200.80987221 484.36876492 217.01451004 C484.41119457 233.6506966 484.43475397 250.28682698 484.43997824 266.92306751 C484.44339135 276.26397978 484.45513456 285.60472053 484.48808098 294.94557953 C484.5160969 302.90163676 484.5270741 310.85748733 484.51588552 318.81359006 C484.51070265 322.87162392 484.513561 326.9292251 484.53835106 330.98719597 C484.56088252 334.70657585 484.56007427 338.42521323 484.54114719 342.14460646 C484.53703456 344.11844722 484.55746423 346.09229275 484.57893407 348.06602103 C484.50877178 355.95355761 483.13778364 361.44844348 478.92886543 368.13701439 C478.37199043 369.04451439 477.81511543 369.95201439 477.24136543 370.88701439 C470.75147207 377.20150523 463.6798831 380.29494236 454.73460579 380.25726891 C453.62820174 380.25855054 453.62820174 380.25855054 452.49944609 380.25985807 C450.02122349 380.26150872 447.54306816 380.25599827 445.06485176 380.25053978 C443.29103281 380.25025779 441.51721374 380.25041587 439.74339485 380.25098228 C434.92140206 380.25126981 430.09943402 380.24538031 425.27744699 380.23840833 C420.24057467 380.23216734 415.20370183 380.2315704 410.16682625 380.23038292 C400.62585908 380.22727181 391.08490333 380.21906137 381.5439412 380.20903343 C370.68313665 380.19786547 359.82233156 380.19236012 348.9615227 380.18733799 C326.61729727 380.17687859 304.27308199 380.15928339 281.92886543 380.13701439 C282.1042585 380.82970421 282.27965157 381.52239403 282.46035957 382.23607445 C284.11329006 388.76761295 285.76167768 395.30027909 287.40498543 401.83424568 C288.24996351 405.19329317 289.09668517 408.55188083 289.94742012 411.90947533 C290.92562339 415.77047172 291.89619225 419.63336705 292.86636543 423.49638939 C293.17259834 424.70067589 293.47883125 425.90496239 293.79434395 427.14574242 C294.07463448 428.2666024 294.354925 429.38746239 294.64370918 430.54228783 C295.01677193 432.02121513 295.01677193 432.02121513 295.39737129 433.53001976 C295.92886543 436.13701439 295.92886543 436.13701439 295.92886543 440.13701439 C297.161894 440.09773827 297.161894 440.09773827 298.41983223 440.05766869 C302.15181481 439.95359999 305.88349203 439.88865311 309.61636543 439.82451439 C310.90993965 439.78261986 312.20351387 439.74072533 313.53628731 439.69756126 C315.40703926 439.67339134 315.40703926 439.67339134 317.31558418 439.64873314 C319.03587837 439.60945702 319.03587837 439.60945702 320.79092598 439.56938744 C324.88940943 440.31076875 326.34506711 441.94913427 328.92886543 445.13701439 C329.59292793 447.63701439 329.59292793 447.63701439 329.55386543 450.13701439 C329.56675606 450.96201439 329.57964668 451.78701439 329.59292793 452.63701439 C328.61483583 456.31924347 326.87395594 457.75717684 323.92886543 460.13701439 C321.10681469 460.63027696 318.88800573 460.81500929 316.07217598 460.7719326 C315.28738963 460.77973256 314.50260328 460.78753251 313.69403553 460.79556882 C311.06740588 460.81549417 308.44222427 460.79972299 305.81558418 460.78398705 C303.9313491 460.79076295 302.04712064 460.79966593 300.16290474 460.81053734 C295.04716075 460.83334042 289.93192068 460.82449009 284.81616783 460.80864191 C279.46399 460.79598821 274.11185549 460.80772155 268.75967598 460.81557274 C259.77139726 460.82467083 250.78332391 460.81267713 241.79507637 460.78886986 C231.40152687 460.76165836 221.00846777 460.7704724 210.61493015 460.79800189 C201.69333859 460.82068734 192.77189471 460.82389577 183.85028362 460.81080854 C178.52087617 460.80301096 173.19169926 460.80198097 167.86230659 460.81849098 C162.85197543 460.83292819 157.84227686 460.82292754 152.83201408 460.7940197 C150.9925803 460.7874049 149.15309332 460.78931328 147.31368065 460.80033302 C144.80358531 460.81398502 142.29552057 460.79687903 139.78555489 460.7719326 C138.69192399 460.78866301 138.69192399 460.78866301 137.57619953 460.80573142 C133.67938487 460.73053419 132.05111884 460.23580363 128.97932625 457.753582 C126.74993358 454.90868167 126.24824574 453.69667504 126.30386543 450.13701439 C126.29097481 449.31201439 126.27808418 448.48701439 126.26480293 447.63701439 C127.23206119 443.99557152 129.05036366 442.51680099 131.92886543 440.13701439 C135.06680489 439.56938744 135.06680489 439.56938744 138.54214668 439.64873314 C139.78931465 439.66484642 141.03648262 439.6809597 142.32144356 439.69756126 C143.61501778 439.7394558 144.908592 439.78135033 146.24136543 439.82451439 C147.55427559 439.84707298 148.86718575 439.86963158 150.21988106 439.89287376 C153.45736673 439.95173714 156.69253543 440.03392635 159.92886543 440.13701439 C160.03319893 439.06773705 160.13753242 437.9984597 160.24502754 436.89678001 C160.96826469 431.14367487 162.44100652 425.59213878 163.87027168 419.98076439 C164.15740532 418.83788963 164.44453896 417.69501488 164.74037361 416.51750755 C165.65293502 412.88954183 166.57204905 409.26327364 167.49136543 405.63701439 C168.11354446 403.16837379 168.73529392 400.69962488 169.35659981 398.23076439 C170.87571719 392.19825155 172.40020902 386.16711664 173.92886543 380.13701439 C173.01041155 380.14162335 172.09195766 380.14623232 171.14567184 380.15098095 C148.77708077 380.2614986 126.40853689 380.34418974 104.03973007 380.39607525 C93.22223912 380.42183492 82.40493065 380.45694279 71.58755684 380.51421165 C62.15693073 380.56411498 52.7264368 380.59632166 43.29568231 380.60745686 C38.30409908 380.61396386 33.31289393 380.62921062 28.32143211 380.66566467 C23.61821534 380.69973362 18.91553053 380.7100454 14.21220207 380.7025528 C12.4909367 380.70392248 10.76965259 380.71378993 9.04849434 380.73304176 C-0.33172018 380.83277074 -8.01868614 380.57154567 -16.07113457 375.13701439 C-16.97863457 374.58013939 -17.88613457 374.02326439 -18.82113457 373.44951439 C-24.51210068 367.60046589 -28.18937001 360.71961749 -28.20814896 352.5483675 C-28.2132235 351.37814043 -28.21829804 350.20791336 -28.22352636 349.00222486 C-28.22402412 347.71042596 -28.22452187 346.41862705 -28.22503471 345.08768272 C-28.22904926 343.7062863 -28.23348747 342.32489106 -28.23831427 340.94349724 C-28.25028679 337.13865346 -28.2559298 333.33382237 -28.26049542 329.52896345 C-28.26644903 325.42857364 -28.27805956 321.32819901 -28.28878593 317.22781944 C-28.31331673 307.32015361 -28.32793873 297.41248274 -28.340846 287.50479588 C-28.34455765 284.70648063 -28.34853091 281.90816588 -28.35259867 279.10985112 C-28.37783651 261.73385979 -28.39989035 244.35786768 -28.41232681 226.98186207 C-28.41525653 222.95634966 -28.41821819 218.93083728 -28.42123222 214.90532494 C-28.42197827 213.90479798 -28.42272432 212.90427103 -28.42349298 211.87342507 C-28.43614415 195.66873593 -28.46936346 179.46415657 -28.51103406 163.25951874 C-28.5534637 146.62333217 -28.5770231 129.9872018 -28.58224738 113.35096127 C-28.58566048 104.010049 -28.5974037 94.66930825 -28.63035011 85.32844925 C-28.65836603 77.37239202 -28.66934323 69.41654145 -28.65815465 61.46043872 C-28.65297178 57.40240486 -28.65583013 53.34480368 -28.68062019 49.28683281 C-28.70315166 45.56745293 -28.70234341 41.84881555 -28.68341632 38.12942231 C-28.67930369 36.15558156 -28.69973336 34.18173603 -28.72120321 32.20800775 C-28.65104092 24.32047117 -27.28005277 18.8255853 -23.07113457 12.13701439 C-22.51425957 11.22951439 -21.95738457 10.32201439 -21.38363457 9.38701439 C-15.32965295 3.4966539 -8.4203464 0.01771239 0 0 Z M-8.07113457 50.13701439 C-8.07113457 140.22701439 -8.07113457 230.31701439 -8.07113457 323.13701439 C51.74903767 323.22834947 51.74903767 323.22834947 111.56924629 323.25469017 C123.14480782 323.29106712 123.14480782 323.29106712 128.56559944 323.31569481 C132.34783613 323.33082354 136.12966615 323.32920959 139.91191292 323.31740379 C144.74141756 323.3028804 149.57004386 323.31714264 154.39943612 323.35195899 C156.16868279 323.3598659 157.93801004 323.35778972 159.70722377 323.34440827 C175.18799807 323.23674116 175.18799807 323.23674116 181.99906445 328.77677536 C185.3931684 331.1691426 188.85531649 330.97643537 192.88589668 330.91338158 C193.7310685 330.92389549 194.57624031 330.93440941 195.44702339 330.94524193 C198.212579 330.97143132 200.97579064 330.95424745 203.74136543 330.93388939 C205.67992782 330.93793708 207.61848723 330.94376513 209.55703926 330.95128441 C213.60868677 330.96010235 217.65953754 330.94736382 221.711092 330.91924095 C226.88626214 330.88505589 232.05956507 330.90475404 237.23466682 330.94067574 C241.23438596 330.96243057 245.23366752 330.95542319 249.23340034 330.93990898 C251.14064954 330.93592667 253.04793939 330.94074693 254.95514107 330.9547863 C257.62843146 330.97014978 260.29876246 330.94663452 262.97183418 330.91338158 C264.13638634 330.93159966 264.13638634 330.93159966 265.3244648 330.95018578 C269.94883398 330.84442979 272.27428296 330.06549259 275.8748951 327.13680077 C282.59582571 322.28508851 290.81976073 323.30408917 298.74942207 323.36406517 C300.58278351 323.35587172 302.41613479 323.34505367 304.2494669 323.3318367 C309.14082921 323.30376937 314.03151317 323.31142854 318.92290688 323.3266964 C323.51971906 323.33557201 328.11614567 323.31195116 332.71292305 323.29106712 C346.13900771 323.24887478 359.56521492 323.25858839 372.99136543 323.26201439 C403.00074043 323.22076439 433.01011543 323.17951439 463.92886543 323.13701439 C463.92886543 233.04701439 463.92886543 142.95701439 463.92886543 50.13701439 C308.16886543 50.13701439 152.40886543 50.13701439 -8.07113457 50.13701439 Z " fill="#000000" transform="translate(28.071134567260742,25.862985610961914)"/>
<path d="M0 0 C0.90714249 -0.00287018 1.81428497 -0.00574036 2.74891663 -0.00869751 C4.6609866 -0.01073234 6.57307767 -0.00524326 8.48510742 0.00732422 C11.39745093 0.02336751 14.30840283 0.00746539 17.22070312 -0.01171875 C19.08463846 -0.00973585 20.94857293 -0.00589121 22.8125 0 C23.67624741 -0.00607269 24.53999481 -0.01214539 25.42991638 -0.0184021 C30.84585049 0.04398174 34.69838985 0.77114424 39.47265625 3.3984375 C41.60869933 6.60250212 41.71474533 7.39444497 41.66796875 11.06640625 C41.65830078 12.40541992 41.65830078 12.40541992 41.6484375 13.77148438 C41.62330078 15.16463867 41.62330078 15.16463867 41.59765625 16.5859375 C41.58863281 17.52630859 41.57960937 18.46667969 41.5703125 19.43554688 C41.54674681 21.75676718 41.51384741 24.07747394 41.47265625 26.3984375 C42.1584375 26.49898437 42.84421875 26.59953125 43.55078125 26.703125 C47.06988834 27.54055957 49.98120762 28.91711963 53.22265625 30.5234375 C54.14582642 30.98061157 54.14582642 30.98061157 55.08764648 31.44702148 C59.76405189 33.84183556 63.66136245 36.70587915 67.5078125 40.30859375 C69.47226326 41.69293052 69.47226326 41.69293052 71.87890625 40.77734375 C75.5347444 38.83380329 79.0979021 36.75639943 82.65625 34.640625 C86.0006858 33.16554791 87.85629718 32.81048751 91.47265625 33.3984375 C98.21689732 37.36883749 101.27125555 44.36091623 104.97265625 51.0234375 C105.92978516 52.71146484 105.92978516 52.71146484 106.90625 54.43359375 C108.17008883 56.66921867 109.42417216 58.91038937 110.66796875 61.15722656 C111.84792105 63.27641578 113.05027425 65.3833262 114.27734375 67.47558594 C115.10105469 68.90306152 115.10105469 68.90306152 115.94140625 70.359375 C116.43060547 71.19001465 116.91980469 72.0206543 117.42382812 72.87646484 C118.69201883 75.9259085 118.77813262 78.12348556 118.47265625 81.3984375 C116.22850578 85.16540436 114.63946132 86.89233198 110.58520508 88.65087891 C106.98477176 90.23025114 104.36150294 91.71503049 101.47265625 94.3984375 C99.85807153 99.20068136 99.69534016 103.55384035 99.85327148 108.58618164 C99.91019207 110.83735397 99.83368915 113.05707322 99.74414062 115.30664062 C99.70528719 119.69769029 100.02828474 123.2153436 101.47265625 127.3984375 C104.69216584 130.36763228 107.33545079 131.89473406 111.29321289 133.74243164 C114.74607983 135.54084955 116.3516998 137.16790514 118.47265625 140.3984375 C119.67841935 146.3338488 116.47671866 150.75008416 113.59765625 155.7109375 C112.8547937 157.01913452 112.8547937 157.01913452 112.09692383 158.35375977 C111.07034055 160.15554816 110.03781733 161.95396463 108.99951172 163.74902344 C107.55327107 166.2585539 106.13644562 168.78241466 104.7265625 171.3125 C103.87232767 172.8210119 103.01691683 174.32885866 102.16015625 175.8359375 C101.77682129 176.5266333 101.39348633 177.2173291 100.99853516 177.92895508 C98.39378913 182.42334218 95.75709985 185.41473044 91.47265625 188.3984375 C84.46463821 188.88174909 79.99129077 185.53748963 74.3046875 181.69921875 C71.57788973 180.09851641 71.57788973 180.09851641 68.890625 180.98828125 C66.44787625 182.41288916 64.22359556 183.93710693 61.97265625 185.6484375 C48.40032921 195.3984375 48.40032921 195.3984375 41.47265625 195.3984375 C41.5190625 196.71199219 41.56546875 198.02554688 41.61328125 199.37890625 C41.65080891 201.11456054 41.687208 202.85023949 41.72265625 204.5859375 C41.75617188 205.45025391 41.7896875 206.31457031 41.82421875 207.20507812 C41.88942241 211.4596169 41.87096336 213.75571466 39.58203125 217.44921875 C36.5646459 220.23750632 34.92482854 220.52947361 30.91870117 220.59130859 C29.9739946 220.60737152 29.02928802 220.62343445 28.05595398 220.63998413 C23.73351732 220.68441012 19.41123458 220.72549783 15.08862305 220.74853516 C12.80824582 220.76509846 10.52792059 220.79239315 8.24780273 220.83056641 C4.96180255 220.88530531 1.67701959 220.90720507 -1.609375 220.921875 C-2.62723587 220.94454437 -3.64509674 220.96721375 -4.69380188 220.99057007 C-9.40623219 220.97649428 -11.75899683 220.96061323 -15.6472168 218.11572266 C-19.00945562 213.25639034 -18.65608745 208.91673548 -18.58984375 203.1484375 C-18.58533203 202.40335938 -18.58082031 201.65828125 -18.57617188 200.890625 C-18.56443621 199.0598611 -18.54650225 197.22913877 -18.52734375 195.3984375 C-19.74421875 195.0684375 -20.96109375 194.7384375 -22.21484375 194.3984375 C-29.84528802 191.87107957 -37.10743706 187.25489252 -43.25390625 182.12109375 C-44.37925781 181.26837891 -44.37925781 181.26837891 -45.52734375 180.3984375 C-48.8472667 180.87271221 -51.24025634 182.22948591 -54.109375 183.91796875 C-61.65764698 188.32715088 -61.65764698 188.32715088 -66.33984375 188.7109375 C-75.03166011 185.13195429 -79.32471495 174.18214657 -83.71484375 166.3359375 C-84.43227423 165.0692826 -85.15036879 163.8030036 -85.86914062 162.53710938 C-95.15048825 146.13136686 -95.15048825 146.13136686 -94.52734375 140.3984375 C-93.13206205 136.0348495 -89.79010227 134.38615473 -86.02734375 132.2109375 C-85.43308594 131.85580078 -84.83882812 131.50066406 -84.2265625 131.13476562 C-82.02316045 129.82416418 -79.82097795 128.5452546 -77.52734375 127.3984375 C-77.2037489 122.84589839 -76.96924624 118.30013347 -76.81323242 113.73876953 C-76.74819227 112.19168546 -76.65970568 110.64539072 -76.54663086 109.10107422 C-76.17845923 103.94000773 -76.1090891 99.40851211 -77.52734375 94.3984375 C-80.7326883 91.35177337 -83.31629835 89.88423045 -87.3215332 88.0390625 C-90.81370562 86.25188721 -92.40520116 84.6636905 -94.52734375 81.3984375 C-95.91152104 74.3811843 -92.11309544 69.27079385 -88.65234375 63.4609375 C-88.06461182 62.45200439 -87.47687988 61.44307129 -86.87133789 60.40356445 C-85.10727385 57.39124038 -83.32016332 54.39371485 -81.52734375 51.3984375 C-81.02154785 50.5415332 -80.51575195 49.68462891 -79.99462891 48.80175781 C-78.66559469 46.55417358 -77.32055645 44.31750852 -75.96484375 42.0859375 C-75.57248535 41.42924072 -75.18012695 40.77254395 -74.77587891 40.09594727 C-72.76404528 36.86472812 -71.26190645 34.5255691 -67.52734375 33.3984375 C-60.44311011 33.27193333 -56.07114507 36.22219698 -50.26171875 40.09765625 C-47.71238572 41.67278916 -47.71238572 41.67278916 -45.5859375 40.87890625 C-44.56693359 40.14607422 -44.56693359 40.14607422 -43.52734375 39.3984375 C-42.49222656 38.73070312 -41.45710938 38.06296875 -40.390625 37.375 C-39.81731445 36.99529053 -39.24400391 36.61558105 -38.65332031 36.22436523 C-23.81555019 26.3984375 -23.81555019 26.3984375 -18.52734375 26.3984375 C-18.56214844 25.24085937 -18.59695312 24.08328125 -18.6328125 22.890625 C-18.66096582 21.3515771 -18.68826431 19.81251339 -18.71484375 18.2734375 C-18.73998047 17.51289062 -18.76511719 16.75234375 -18.79101562 15.96875 C-18.85456284 11.05443208 -18.46112553 7.54386501 -15.52734375 3.3984375 C-10.37351586 0.04640301 -5.93797429 -0.04165012 0 0 Z " fill="#F94747" transform="translate(151.52734375,101.6015625)"/>
<path d="M0 0 C5.24396213 4.22430283 6.73499925 10.47313515 8.25 16.8125 C8.25 17.8025 8.25 18.7925 8.25 19.8125 C8.79785156 19.75449219 9.34570312 19.69648438 9.91015625 19.63671875 C19.71635547 19.07864237 29.31976983 22.55341699 37.875 27.1875 C41.64238494 29.00142608 42.40596084 29.02823528 46.25 27.8125 C48.72983166 26.23306847 48.72983166 26.23306847 51.125 24.3125 C55.19149432 21.38631344 58.06508631 19.51337036 63.25 19.8125 C69.02459939 22.84497119 72.08903692 27.20856048 75.75 32.5 C76.29269531 33.26505859 76.83539063 34.03011719 77.39453125 34.81835938 C79.03166722 37.13730973 80.64070007 39.47417602 82.25 41.8125 C82.82057129 42.61300781 83.39114258 43.41351563 83.97900391 44.23828125 C84.52476074 45.01945312 85.07051758 45.800625 85.6328125 46.60546875 C86.12668457 47.30309326 86.62055664 48.00071777 87.12939453 48.71948242 C88.77425392 51.7916784 88.84619403 54.29566056 88.19140625 57.67578125 C86.34980529 61.85568052 82.90406369 64.24334047 79.25 66.8125 C78.63511719 67.24820313 78.02023437 67.68390625 77.38671875 68.1328125 C76.02975938 69.05904252 74.64320748 69.94174532 73.25 70.8125 C73.41226074 71.52567383 73.57452148 72.23884766 73.74169922 72.97363281 C74.24691302 75.79525917 74.37930962 78.37102483 74.3828125 81.234375 C74.38410156 82.26046875 74.38539063 83.2865625 74.38671875 84.34375 C74.38285156 85.4059375 74.37898437 86.468125 74.375 87.5625 C74.37886719 88.60921875 74.38273438 89.6559375 74.38671875 90.734375 C74.37908229 96.84354643 74.04833882 102.75526259 73.25 108.8125 C73.97703125 109.06 74.7040625 109.3075 75.453125 109.5625 C78.52474835 110.93529256 80.5214059 112.55015907 83 114.8125 C84.16789062 115.864375 84.16789062 115.864375 85.359375 116.9375 C87.31768451 118.87962513 88.19070172 119.8809191 88.36621094 122.63818359 C87.93806916 129.77546561 84.86602111 133.95787836 80.5 139.4375 C79.25496282 141.05449849 78.01016708 142.67168292 76.765625 144.2890625 C76.16709717 145.05307373 75.56856934 145.81708496 74.9519043 146.60424805 C73.38353507 148.63923581 71.88556278 150.70568756 70.41015625 152.80859375 C67.32612026 157.09724416 65.82961247 157.50221898 60.75 158.5 C55.07782987 158.46813388 51.19833689 154.1355668 47.1796875 150.5859375 C44.35598595 148.42900386 44.35598595 148.42900386 41.12109375 149.41796875 C40.17363281 149.87816406 39.22617187 150.33835937 38.25 150.8125 C37.58355469 151.13089844 36.91710937 151.44929687 36.23046875 151.77734375 C35.63878906 152.09832031 35.04710937 152.41929687 34.4375 152.75 C25.7899611 157.12271779 17.92946077 158.37864473 8.25 158.8125 C8.06824219 159.52535156 7.88648438 160.23820313 7.69921875 160.97265625 C3.91932329 175.37502717 3.91932329 175.37502717 0 178.75 C-5.76964085 180.97917942 -10.95745664 179.70409143 -16.63671875 177.765625 C-17.26101273 177.55315125 -17.8853067 177.34067749 -18.52851868 177.12176514 C-19.83701307 176.67309168 -21.14366647 176.21901564 -22.44848633 175.75976562 C-24.43748465 175.06250538 -26.43364668 174.38973459 -28.43164062 173.71875 C-29.70883375 173.27748742 -30.98554474 172.83482633 -32.26171875 172.390625 C-33.41115967 171.99262695 -34.56060059 171.59462891 -35.74487305 171.18457031 C-39.49913845 169.470461 -41.8953503 167.52179941 -43.75 163.8125 C-44.14467401 158.18839536 -43.45105613 154.19684534 -41.30859375 148.98828125 C-40.58997323 146.18917895 -40.84042343 144.5499338 -41.75 141.8125 C-43.33808327 139.89071144 -43.33808327 139.89071144 -45.375 138.1875 C-52.337891 131.57400138 -56.57807014 123.3491575 -60.75 114.8125 C-62.06355469 114.80992187 -63.37710937 114.80734375 -64.73046875 114.8046875 C-66.46617967 114.76715862 -68.20185612 114.72801102 -69.9375 114.6875 C-71.23397461 114.69136719 -71.23397461 114.69136719 -72.55664062 114.6953125 C-73.39775391 114.66953125 -74.23886719 114.64375 -75.10546875 114.6171875 C-76.26018677 114.60147705 -76.26018677 114.60147705 -77.43823242 114.58544922 C-81.03131516 113.38408689 -83.00344018 111.0561762 -84.75 107.8125 C-85.43580937 104.88939884 -85.45267528 102.08294898 -85.4140625 99.08984375 C-85.41884613 98.2667421 -85.42362976 97.44364044 -85.42855835 96.59559631 C-85.43194675 94.86343463 -85.4228186 93.13120807 -85.40185547 91.39916992 C-85.37503642 88.75359287 -85.4016528 86.11224423 -85.43359375 83.46679688 C-85.43029013 81.77863651 -85.42388487 80.09047877 -85.4140625 78.40234375 C-85.42418365 77.61576889 -85.43430481 76.82919403 -85.44473267 76.01878357 C-85.35549902 71.82317709 -85.09311932 70.24604311 -82.39599609 66.83813477 C-79.10359132 64.31764368 -76.77371536 63.68450214 -72.73828125 63.71484375 C-71.60229492 63.71967773 -71.60229492 63.71967773 -70.44335938 63.72460938 C-69.26483398 63.73717773 -69.26483398 63.73717773 -68.0625 63.75 C-67.26521484 63.75451172 -66.46792969 63.75902344 -65.64648438 63.76367188 C-63.68095743 63.7754415 -61.71546915 63.79337652 -59.75 63.8125 C-59.42 62.554375 -59.09 61.29625 -58.75 60 C-56.00958587 51.817355 -50.54403016 45.31242172 -44.1875 39.625 C-41.48625423 37.10984869 -41.48625423 37.10984869 -40.40234375 33.71875 C-40.719396 30.73734637 -41.61953184 28.1118093 -42.8125 25.375 C-44.23163128 21.49604117 -44.43995457 17.88545763 -43.75 13.8125 C-40.15073892 8.41360838 -34.65423901 6.813342 -28.75 4.8125 C-28.02280762 4.56290527 -27.29561523 4.31331055 -26.54638672 4.05615234 C-24.05688943 3.20861059 -21.56128657 2.38222681 -19.0625 1.5625 C-18.25474121 1.29187744 -17.44698242 1.02125488 -16.61474609 0.74243164 C-10.95547191 -1.06279194 -5.69190476 -2.45786796 0 0 Z " fill="#020202" transform="translate(366.75,123.1875)"/>
<path d="M0 0 C0.90714249 -0.00287018 1.81428497 -0.00574036 2.74891663 -0.00869751 C4.6609866 -0.01073234 6.57307767 -0.00524326 8.48510742 0.00732422 C11.39745093 0.02336751 14.30840283 0.00746539 17.22070312 -0.01171875 C19.08463846 -0.00973585 20.94857293 -0.00589121 22.8125 0 C23.67624741 -0.00607269 24.53999481 -0.01214539 25.42991638 -0.0184021 C30.84585049 0.04398174 34.69838985 0.77114424 39.47265625 3.3984375 C41.60869933 6.60250212 41.71474533 7.39444497 41.66796875 11.06640625 C41.65830078 12.40541992 41.65830078 12.40541992 41.6484375 13.77148438 C41.62330078 15.16463867 41.62330078 15.16463867 41.59765625 16.5859375 C41.58863281 17.52630859 41.57960937 18.46667969 41.5703125 19.43554688 C41.54674681 21.75676718 41.51384741 24.07747394 41.47265625 26.3984375 C42.1584375 26.49898437 42.84421875 26.59953125 43.55078125 26.703125 C47.06988834 27.54055957 49.98120762 28.91711963 53.22265625 30.5234375 C54.14582642 30.98061157 54.14582642 30.98061157 55.08764648 31.44702148 C59.76405189 33.84183556 63.66136245 36.70587915 67.5078125 40.30859375 C69.47226326 41.69293052 69.47226326 41.69293052 71.87890625 40.77734375 C75.5347444 38.83380329 79.0979021 36.75639943 82.65625 34.640625 C86.0006858 33.16554791 87.85629718 32.81048751 91.47265625 33.3984375 C98.21689732 37.36883749 101.27125555 44.36091623 104.97265625 51.0234375 C105.92978516 52.71146484 105.92978516 52.71146484 106.90625 54.43359375 C108.17008883 56.66921867 109.42417216 58.91038937 110.66796875 61.15722656 C111.84792105 63.27641578 113.05027425 65.3833262 114.27734375 67.47558594 C115.10105469 68.90306152 115.10105469 68.90306152 115.94140625 70.359375 C116.43060547 71.19001465 116.91980469 72.0206543 117.42382812 72.87646484 C118.69201883 75.9259085 118.77813262 78.12348556 118.47265625 81.3984375 C116.22850578 85.16540436 114.63946132 86.89233198 110.58520508 88.65087891 C106.98477176 90.23025114 104.36150294 91.71503049 101.47265625 94.3984375 C99.85807153 99.20068136 99.69534016 103.55384035 99.85327148 108.58618164 C99.91019207 110.83735397 99.83368915 113.05707322 99.74414062 115.30664062 C99.70528719 119.69769029 100.02828474 123.2153436 101.47265625 127.3984375 C104.69216584 130.36763228 107.33545079 131.89473406 111.29321289 133.74243164 C114.74607983 135.54084955 116.3516998 137.16790514 118.47265625 140.3984375 C119.67841935 146.3338488 116.47671866 150.75008416 113.59765625 155.7109375 C112.8547937 157.01913452 112.8547937 157.01913452 112.09692383 158.35375977 C111.07034055 160.15554816 110.03781733 161.95396463 108.99951172 163.74902344 C107.55327107 166.2585539 106.13644562 168.78241466 104.7265625 171.3125 C103.87232767 172.8210119 103.01691683 174.32885866 102.16015625 175.8359375 C101.77682129 176.5266333 101.39348633 177.2173291 100.99853516 177.92895508 C98.39378913 182.42334218 95.75709985 185.41473044 91.47265625 188.3984375 C84.46463821 188.88174909 79.99129077 185.53748963 74.3046875 181.69921875 C71.57788973 180.09851641 71.57788973 180.09851641 68.890625 180.98828125 C66.44787625 182.41288916 64.22359556 183.93710693 61.97265625 185.6484375 C48.40032921 195.3984375 48.40032921 195.3984375 41.47265625 195.3984375 C41.5190625 196.71199219 41.56546875 198.02554688 41.61328125 199.37890625 C41.65080891 201.11456054 41.687208 202.85023949 41.72265625 204.5859375 C41.75617188 205.45025391 41.7896875 206.31457031 41.82421875 207.20507812 C41.88942241 211.4596169 41.87096336 213.75571466 39.58203125 217.44921875 C36.5646459 220.23750632 34.92482854 220.52947361 30.91870117 220.59130859 C29.9739946 220.60737152 29.02928802 220.62343445 28.05595398 220.63998413 C23.73351732 220.68441012 19.41123458 220.72549783 15.08862305 220.74853516 C12.80824582 220.76509846 10.52792059 220.79239315 8.24780273 220.83056641 C4.96180255 220.88530531 1.67701959 220.90720507 -1.609375 220.921875 C-2.62723587 220.94454437 -3.64509674 220.96721375 -4.69380188 220.99057007 C-9.40623219 220.97649428 -11.75899683 220.96061323 -15.6472168 218.11572266 C-19.00945562 213.25639034 -18.65608745 208.91673548 -18.58984375 203.1484375 C-18.58533203 202.40335938 -18.58082031 201.65828125 -18.57617188 200.890625 C-18.56443621 199.0598611 -18.54650225 197.22913877 -18.52734375 195.3984375 C-19.74421875 195.0684375 -20.96109375 194.7384375 -22.21484375 194.3984375 C-29.84528802 191.87107957 -37.10743706 187.25489252 -43.25390625 182.12109375 C-44.37925781 181.26837891 -44.37925781 181.26837891 -45.52734375 180.3984375 C-48.8472667 180.87271221 -51.24025634 182.22948591 -54.109375 183.91796875 C-61.65764698 188.32715088 -61.65764698 188.32715088 -66.33984375 188.7109375 C-75.03166011 185.13195429 -79.32471495 174.18214657 -83.71484375 166.3359375 C-84.43227423 165.0692826 -85.15036879 163.8030036 -85.86914062 162.53710938 C-95.15048825 146.13136686 -95.15048825 146.13136686 -94.52734375 140.3984375 C-93.13206205 136.0348495 -89.79010227 134.38615473 -86.02734375 132.2109375 C-85.43308594 131.85580078 -84.83882812 131.50066406 -84.2265625 131.13476562 C-82.02316045 129.82416418 -79.82097795 128.5452546 -77.52734375 127.3984375 C-77.2037489 122.84589839 -76.96924624 118.30013347 -76.81323242 113.73876953 C-76.74819227 112.19168546 -76.65970568 110.64539072 -76.54663086 109.10107422 C-76.17845923 103.94000773 -76.1090891 99.40851211 -77.52734375 94.3984375 C-80.7326883 91.35177337 -83.31629835 89.88423045 -87.3215332 88.0390625 C-90.81370562 86.25188721 -92.40520116 84.6636905 -94.52734375 81.3984375 C-95.91152104 74.3811843 -92.11309544 69.27079385 -88.65234375 63.4609375 C-88.06461182 62.45200439 -87.47687988 61.44307129 -86.87133789 60.40356445 C-85.10727385 57.39124038 -83.32016332 54.39371485 -81.52734375 51.3984375 C-81.02154785 50.5415332 -80.51575195 49.68462891 -79.99462891 48.80175781 C-78.66559469 46.55417358 -77.32055645 44.31750852 -75.96484375 42.0859375 C-75.57248535 41.42924072 -75.18012695 40.77254395 -74.77587891 40.09594727 C-72.76404528 36.86472812 -71.26190645 34.5255691 -67.52734375 33.3984375 C-60.44311011 33.27193333 -56.07114507 36.22219698 -50.26171875 40.09765625 C-47.71238572 41.67278916 -47.71238572 41.67278916 -45.5859375 40.87890625 C-44.56693359 40.14607422 -44.56693359 40.14607422 -43.52734375 39.3984375 C-42.49222656 38.73070312 -41.45710938 38.06296875 -40.390625 37.375 C-39.81731445 36.99529053 -39.24400391 36.61558105 -38.65332031 36.22436523 C-23.81555019 26.3984375 -23.81555019 26.3984375 -18.52734375 26.3984375 C-18.56214844 25.24085937 -18.59695312 24.08328125 -18.6328125 22.890625 C-18.66096582 21.3515771 -18.68826431 19.81251339 -18.71484375 18.2734375 C-18.73998047 17.51289062 -18.76511719 16.75234375 -18.79101562 15.96875 C-18.85456284 11.05443208 -18.46112553 7.54386501 -15.52734375 3.3984375 C-10.37351586 0.04640301 -5.93797429 -0.04165012 0 0 Z M1.47265625 20.3984375 C1.30253579 25.81247055 1.30253579 25.81247055 1.17480469 31.22753906 C1.01824617 34.70643414 0.84996118 36.84255377 -1.13671875 39.76953125 C-4.14111891 41.81664705 -7.10765938 42.97486409 -10.52734375 44.2109375 C-20.86340684 48.13758498 -29.71769351 53.1431283 -37.78515625 60.796875 C-40.70881063 63.48453934 -43.2072617 63.8359375 -47.1640625 63.8359375 C-51.10503957 63.10636819 -54.07414213 60.86603862 -57.328125 58.61328125 C-58.05386719 58.21238281 -58.77960938 57.81148437 -59.52734375 57.3984375 C-63.68326104 58.78374326 -64.7052094 61.63211088 -66.71484375 65.2734375 C-67.08287109 65.91152344 -67.45089844 66.54960937 -67.83007812 67.20703125 C-70.00031499 71.06153036 -70.00031499 71.06153036 -70.52734375 75.3984375 C-67.9038239 77.22513859 -67.9038239 77.22513859 -64.65234375 78.8984375 C-58.73398582 82.0884744 -58.73398582 82.0884744 -56.52734375 85.3984375 C-56.296875 87.484375 -56.296875 87.484375 -56.33984375 89.7734375 C-56.34951172 90.89878906 -56.34951172 90.89878906 -56.359375 92.046875 C-56.52734375 94.3984375 -56.52734375 94.3984375 -57.02954102 96.72949219 C-57.52229141 99.37134962 -57.65659881 101.7692925 -57.66015625 104.453125 C-57.66144531 105.39800781 -57.66273437 106.34289062 -57.6640625 107.31640625 C-57.66019531 108.29222656 -57.65632813 109.26804687 -57.65234375 110.2734375 C-57.65621094 111.24152344 -57.66007812 112.20960938 -57.6640625 113.20703125 C-57.65702654 118.37846387 -57.36061076 123.28165725 -56.52734375 128.3984375 C-56.30735465 132.25471696 -56.29190475 135.6921205 -57.52734375 139.3984375 C-59.29296875 140.421875 -59.29296875 140.421875 -61.52734375 141.3984375 C-63.11487524 142.26579742 -64.69816765 143.14095674 -66.27734375 144.0234375 C-67.0765625 144.46945313 -67.87578125 144.91546875 -68.69921875 145.375 C-69.60414062 145.88160156 -69.60414062 145.88160156 -70.52734375 146.3984375 C-69.62211162 150.5987146 -67.62452281 153.97810211 -65.46484375 157.6484375 C-65.08779297 158.298125 -64.71074219 158.9478125 -64.32226562 159.6171875 C-63.3950026 161.21348841 -62.46175919 162.80631279 -61.52734375 164.3984375 C-60.76550781 163.9653125 -60.00367188 163.5321875 -59.21875 163.0859375 C-48.24476519 157.1673839 -48.24476519 157.1673839 -42.8515625 157.5546875 C-39.04033639 158.93825866 -36.30685899 161.57991513 -33.3203125 164.26416016 C-25.08351863 171.63950542 -15.66000098 176.57434979 -4.953125 179.4140625 C-2.0568767 180.58935166 -1.10413706 181.73540879 0.47265625 184.3984375 C2.19091045 189.5532001 2.09839429 194.99837213 2.47265625 200.3984375 C8.74265625 200.3984375 15.01265625 200.3984375 21.47265625 200.3984375 C21.57578125 198.3771875 21.67890625 196.3559375 21.78515625 194.2734375 C22.5653307 184.94174051 22.5653307 184.94174051 25.47265625 181.3984375 C27.43855966 180.24892357 29.42303305 179.42001056 31.54296875 178.5859375 C41.67993521 174.4770871 52.08380943 169.60708607 59.99609375 161.91796875 C62.71996918 159.34541973 64.44204042 158.40414554 68.16015625 157.7109375 C73.09835511 157.98793511 77.00132027 160.58838577 81.15234375 163.0859375 C83.31848874 164.56255314 83.31848874 164.56255314 85.47265625 164.3984375 C86.97785012 161.77629422 88.47696944 159.15099542 89.97265625 156.5234375 C90.40191406 155.77707031 90.83117187 155.03070313 91.2734375 154.26171875 C91.67949219 153.54628906 92.08554688 152.83085937 92.50390625 152.09375 C92.88095703 151.43391113 93.25800781 150.77407227 93.64648438 150.09423828 C94.61864785 148.41316604 94.61864785 148.41316604 94.47265625 146.3984375 C92.34974153 144.98119262 90.24104545 143.67346456 88.03515625 142.3984375 C81.6015567 138.65623839 81.6015567 138.65623839 80.47265625 136.3984375 C80.37632728 134.58801957 80.34284092 132.77390997 80.34765625 130.9609375 C80.34507812 129.99285156 80.3425 129.02476562 80.33984375 128.02734375 C80.47265625 125.3984375 80.47265625 125.3984375 81.47265625 122.3984375 C81.56576573 120.75725115 81.60334769 119.11257405 81.60546875 117.46875 C81.60740234 116.02822266 81.60740234 116.02822266 81.609375 114.55859375 C81.60550781 113.55699219 81.60164062 112.55539063 81.59765625 111.5234375 C81.60152344 110.52957031 81.60539063 109.53570312 81.609375 108.51171875 C81.60808594 107.54878906 81.60679687 106.58585937 81.60546875 105.59375 C81.60377686 104.27914795 81.60377686 104.27914795 81.60205078 102.93798828 C81.46937512 100.33404064 81.02780785 97.94243835 80.47265625 95.3984375 C79.93765364 90.50698502 79.54999353 86.73778662 82.41015625 82.5859375 C86.2621507 79.83451289 90.26257803 77.55392417 94.47265625 75.3984375 C93.1233808 70.85996552 91.28106277 67.07911504 88.84765625 63.0234375 C88.21601563 61.96382812 87.584375 60.90421875 86.93359375 59.8125 C86.45148438 59.01585937 85.969375 58.21921875 85.47265625 57.3984375 C82.38401881 58.58268191 79.53253382 59.89071762 76.66015625 61.5234375 C72.5375969 63.51946251 68.95738939 64.94785051 64.47265625 63.3984375 C61.91308882 61.54056966 59.53672665 59.55860126 57.17236328 57.4597168 C48.90515917 50.12898159 39.8700127 45.84467276 29.40625 42.63671875 C26.09360656 41.23843916 25.00813985 40.63241836 23.47265625 37.3984375 C22.9912159 34.48265628 22.87146921 31.59927939 22.78515625 28.6484375 C22.68203125 25.9259375 22.57890625 23.2034375 22.47265625 20.3984375 C15.54265625 20.3984375 8.61265625 20.3984375 1.47265625 20.3984375 Z " fill="#020202" transform="translate(151.52734375,101.6015625)"/>
<path d="M0 0 C0.24234375 0.83144531 0.4846875 1.66289062 0.734375 2.51953125 C1.06953125 3.60621094 1.4046875 4.69289062 1.75 5.8125 C2.23726563 7.43091797 2.23726563 7.43091797 2.734375 9.08203125 C4.15381304 12.35462451 4.82558803 13.42327062 8 15 C10.7473848 15.4569455 13.36079911 15.77915356 16.125 16 C28.02488389 17.2018053 38.47470454 20.17307398 48.12890625 27.6484375 C51.2836404 29.9272225 53.17764401 29.60672317 57 29 C59.94054599 27.25066669 62.69679218 25.3681393 65.44921875 23.3359375 C68 22 68 22 70.21875 22.66796875 C72.33988684 24.25416976 73.67643384 25.70117457 75 28 C73.73849565 31.78451306 72.28695594 32.40076619 69 34.5625 C65.4021198 36.74181093 65.4021198 36.74181093 63 40 C62.87817266 41.60075452 62.82453402 43.20716137 62.8125 44.8125 C62.79832031 45.66457031 62.78414063 46.51664063 62.76953125 47.39453125 C62.85367616 50.0008978 62.85367616 50.0008978 63.99609375 52.17578125 C65.5418368 56.52431132 65.28815243 60.79670849 65.25 65.375 C65.26160156 66.75558594 65.26160156 66.75558594 65.2734375 68.1640625 C65.25807684 73.54029373 64.65389935 77.89781628 63 83 C62.25702546 87.8879904 62.37202455 91.01046292 65.0625 95.25 C68.02947363 98.30223149 71.46869778 100.64579852 75 103 C73.62845496 105.95409701 72.01136276 108.44008376 70 111 C65.91467542 109.59566967 62.72773439 107.53513828 59.2578125 105.0234375 C55.97301067 103.53447888 53.57237699 103.62315076 50 104 C46.81804887 105.56459407 46.81804887 105.56459407 43.8125 107.75 C33.62118399 114.41755884 24.53792928 116.43763105 12.56640625 116.53125 C8.36303675 117.08371916 6.85721863 117.89961383 4 121 C2.34344381 124.22562705 2.34344381 124.22562705 1.1875 127.75 C0.55908203 129.50570312 0.55908203 129.50570312 -0.08203125 131.296875 C-0.38496094 132.18890625 -0.68789063 133.0809375 -1 134 C-7.75 133.125 -7.75 133.125 -10 132 C-9.125 124.375 -9.125 124.375 -8 121 C-7.32746889 115.29816817 -7.32746889 115.29816817 -9.9375 110.5 C-10.948125 109.675 -11.95875 108.85 -13 108 C-22.63906988 100.0184898 -28.86021079 92.03463838 -32.69604492 80.08959961 C-33.87193655 76.72053132 -34.78757399 75.14643835 -37.75390625 73.1015625 C-41.23149082 71.92144355 -44.21233061 71.49937089 -47.875 71.3125 C-49.02742188 71.24675781 -50.17984375 71.18101562 -51.3671875 71.11328125 C-52.23601562 71.07589844 -53.10484375 71.03851563 -54 71 C-54 68.03 -54 65.06 -54 62 C-53.13117188 61.97421875 -52.26234375 61.9484375 -51.3671875 61.921875 C-50.21476562 61.86515625 -49.06234375 61.8084375 -47.875 61.75 C-46.16957031 61.68039063 -46.16957031 61.68039063 -44.4296875 61.609375 C-40.30179891 60.87594605 -38.17631285 59.73027743 -35 57 C-33.25445224 53.89700717 -33.25445224 53.89700717 -32.0625 50.375 C-28.05068312 40.17454485 -22.65565938 33.11238959 -14.33203125 26.0078125 C-9.91421482 22.61267584 -9.91421482 22.61267584 -7.5390625 17.8515625 C-7.71922851 13.18362509 -8.3548674 9.42129387 -10 5 C-10 3.68 -10 2.36 -10 1 C-6.14742381 -0.87125129 -4.12048864 -0.99030231 0 0 Z " fill="#9494A3" transform="translate(356,146)"/>
<path d="M0 0 C0.96268799 0.01095703 1.92537598 0.02191406 2.91723633 0.03320312 C17.4171086 0.47218673 29.01096282 6.79887444 39 17.3125 C49.13513784 29.64033593 51.47040825 43.16439367 50.1875 58.5625 C48.6651095 67.01349724 45.4605263 73.83575718 40.1875 80.5625 C39.72472656 81.18769531 39.26195312 81.81289062 38.78515625 82.45703125 C34.97545708 87.30094238 30.40944104 90.37077155 25.1875 93.5625 C24.3625 94.119375 23.5375 94.67625 22.6875 95.25 C15.63634357 98.95185713 8.84408507 100.120733 0.9375 100.0625 C0.01727051 100.05605469 -0.90295898 100.04960937 -1.85107422 100.04296875 C-16.20277821 99.66005511 -27.80443473 93.14880612 -37.625 82.8125 C-48.40527726 69.69995121 -50.34435266 54.91972749 -48.8125 38.5625 C-47.74158147 34.09957341 -46.17036738 30.48400575 -43.8125 26.5625 C-43.34328125 25.7478125 -42.8740625 24.933125 -42.390625 24.09375 C-33.16829011 9.21901631 -17.62332409 -0.28572488 0 0 Z " fill="#020101" transform="translate(162.8125,162.4375)"/>
<path d="M0 0 C22.9224073 -0.14025473 45.84474369 -0.24601262 68.76749325 -0.31087303 C79.41130365 -0.34179138 90.05484721 -0.38393338 100.69848633 -0.45263672 C109.97711622 -0.51250047 119.25555283 -0.55116384 128.53437048 -0.56453097 C133.44607415 -0.57234291 138.35722494 -0.59066058 143.26875114 -0.63438034 C147.89569763 -0.67523163 152.52186567 -0.68764386 157.14897537 -0.67864609 C158.84326094 -0.68029115 160.53757366 -0.69215179 162.2317028 -0.71523285 C177.1209714 -0.90806549 177.1209714 -0.90806549 183.9836359 4.63653374 C187.70415653 7.15235137 191.69978355 6.83594495 196.05859375 6.77636719 C197.02080841 6.7868811 197.98302307 6.79739502 198.97439575 6.80822754 C202.12944034 6.83446112 205.28243782 6.81721515 208.4375 6.796875 C210.64510482 6.80092137 212.85270702 6.80674832 215.06030273 6.81427002 C219.67685512 6.82309401 224.29270882 6.81032893 228.90917969 6.78222656 C234.81068034 6.7480421 240.7105436 6.76773683 246.61198425 6.80366135 C251.16756405 6.82539912 255.7227591 6.81841636 260.27835083 6.80289459 C262.45354407 6.79890763 264.62877286 6.80374908 266.80392456 6.81777191 C269.85068552 6.83310588 272.89483834 6.80965639 275.94140625 6.77636719 C276.82998322 6.78851257 277.71856018 6.80065796 278.63406372 6.81317139 C283.55127757 6.71422282 286.1973443 6.10618678 290.04930115 2.99404907 C296.6031 -1.80194659 304.5134462 -0.78682571 312.26977539 -0.68115234 C314.0149225 -0.6794579 315.76007388 -0.6804138 317.50521851 -0.68380737 C322.22185619 -0.6855228 326.93757087 -0.6503467 331.6539948 -0.60836363 C336.5906878 -0.5707537 341.52740398 -0.56732319 346.46421814 -0.56021118 C355.80331218 -0.54159244 365.14198277 -0.49239571 374.48089069 -0.43211424 C385.11687095 -0.36495651 395.75287186 -0.33203682 406.3890115 -0.30194163 C428.25957697 -0.23929399 450.12976177 -0.13381686 472 0 C472.06445294 1.59191218 472.11034071 3.18458288 472.1484375 4.77734375 C472.17599121 5.66413818 472.20354492 6.55093262 472.23193359 7.46459961 C471.85258513 11.61147729 469.9957351 13.21824598 467 16 C464.00016543 17.49991728 460.92056525 17.13944049 457.63073254 17.13142776 C456.85833606 17.1334804 456.08593958 17.13553303 455.29013714 17.13764787 C452.67462554 17.14334971 450.05916606 17.14185672 447.44364929 17.14044189 C445.56045226 17.14302371 443.67725577 17.14603635 441.79406005 17.1494453 C436.59770985 17.15754014 431.40137344 17.15930624 426.20501769 17.16004276 C420.60912746 17.16188901 415.01324447 17.16943414 409.4173584 17.17617798 C397.17166485 17.18977932 384.92597457 17.19578878 372.68027472 17.20018864 C365.03943611 17.20294795 357.39859876 17.20718472 349.757761 17.21169281 C328.61803987 17.22388769 307.47831981 17.23422207 286.33859539 17.2375679 C284.97104964 17.23778954 283.6035039 17.23801132 282.23595815 17.23823325 C280.86507155 17.2384539 279.49418495 17.23867438 278.12329835 17.2388947 C275.37297038 17.23933726 272.62264242 17.23978437 269.87231445 17.24023438 C269.19039091 17.24034377 268.50846737 17.24045316 267.80587947 17.24056586 C245.68885246 17.24419741 223.5718582 17.26012058 201.45484373 17.28342474 C178.08228044 17.3080069 154.7097411 17.32173325 131.33716232 17.32293582 C118.59210882 17.32385395 105.84709821 17.32964099 93.1020565 17.34775543 C82.25098386 17.36312323 71.39996735 17.36829657 60.5488859 17.36001733 C55.00910634 17.35609905 49.46943993 17.35709761 43.92967415 17.37107468 C38.86235109 17.38374322 33.79522704 17.38267849 28.72790454 17.37048396 C26.89073893 17.36851468 25.05355956 17.37166168 23.21641334 17.38032833 C20.72629465 17.39133537 18.23688897 17.38399409 15.74679089 17.3719368 C14.66757223 17.38332959 14.66757223 17.38332959 13.56655118 17.39495254 C9.19727885 17.3490276 6.50361305 16.62225132 3 14 C0.80665227 11.73528521 0.06476915 10.56996855 -0.29296875 7.421875 C-0.25816406 6.54015625 -0.22335938 5.6584375 -0.1875 4.75 C-0.16042969 3.85796875 -0.13335938 2.9659375 -0.10546875 2.046875 C-0.07066406 1.37140625 -0.03585938 0.6959375 0 0 Z " fill="#EFEFF9" transform="translate(20,369)"/>
<path d="M0 0 C3.125 2.1875 3.125 2.1875 5 5 C5 6.65 5 8.3 5 10 C11.6 10 18.2 10 25 10 C25.99 11.98 26.98 13.96 28 16 C32.00071901 19.38436673 35.90608654 19.40075782 40.93359375 19.3359375 C42.48503024 19.34844833 44.03646256 19.36148538 45.58789062 19.375 C48.01488051 19.37892836 50.44145757 19.37497615 52.8684082 19.36035156 C55.22408667 19.35174984 57.57806493 19.37350861 59.93359375 19.3984375 C60.65252304 19.38509369 61.37145233 19.37174988 62.11216736 19.35800171 C65.88935507 19.41299216 68.46726561 19.96530585 71.44165039 22.22509766 C74 25 74 25 75 30 C-80.76 30 -236.52 30 -397 30 C-394.67857143 23.03571429 -394.67857143 23.03571429 -392 21 C-388.77049641 19.9234988 -386.45346124 19.87513727 -383.05659771 19.87530136 C-381.18260486 19.87171494 -381.18260486 19.87171494 -379.27075356 19.86805606 C-377.87668449 19.87043472 -376.48261555 19.87289472 -375.08854675 19.87542725 C-373.61355485 19.87444143 -372.1385632 19.87300465 -370.66357213 19.87115407 C-367.4499532 19.8680896 -364.23635497 19.8682067 -361.0227356 19.87071037 C-355.79451448 19.87476325 -350.56630963 19.87200444 -345.33808899 19.86836243 C-338.73223834 19.86426904 -332.12639131 19.86203273 -325.52053938 19.86194643 C-312.54104559 19.86174389 -299.56158925 19.84929526 -286.58210754 19.83233643 C-284.53995123 19.8297306 -282.49779492 19.82713179 -280.45563859 19.8245399 C-277.36051849 19.82060141 -274.26539841 19.81665491 -271.17027837 19.81267868 C-259.49657703 19.7977273 -247.82287454 19.78410521 -236.14916992 19.77197266 C-234.54811534 19.77030231 -234.54811534 19.77030231 -232.91471622 19.76859823 C-215.61453023 19.75101987 -198.31436762 19.74815432 -181.01417419 19.74982306 C-163.2615152 19.75110135 -145.5089434 19.7333857 -127.75631791 19.69880509 C-116.80123628 19.67813281 -105.84636326 19.67283449 -94.8912705 19.6871334 C-87.38534255 19.69558185 -79.87957704 19.68588887 -72.37368342 19.6618239 C-68.0407435 19.64849446 -63.70819301 19.64336526 -59.37525558 19.65994453 C-55.40933853 19.67495192 -51.44415639 19.66702528 -47.47830395 19.640775 C-46.04290578 19.63534593 -44.60744572 19.63838179 -43.17209008 19.65069196 C-34.647473 20.00689499 -34.647473 20.00689499 -27.16141224 16.60499954 C-25.21117454 14.25451396 -24.22324646 13.01382718 -24 10 C-22.741875 9.979375 -21.48375 9.95875 -20.1875 9.9375 C-17.97583945 9.76111046 -17.97583945 9.76111046 -16 9 C-14.10040371 5.62331906 -14.10040371 5.62331906 -13 2 C-8.761197 -0.82586867 -4.9763404 -0.77656267 0 0 Z " fill="#EFEFF9" transform="translate(417,26)"/>
<path d="M0 0 C21.12 0 42.24 0 64 0 C69.76433664 20.7516119 69.76433664 20.7516119 71.67578125 28.4375 C71.89066696 29.29512939 72.10555267 30.15275879 72.32695007 31.03637695 C72.76900456 32.80326041 73.20992183 34.57042881 73.6496582 36.33789062 C74.32601799 39.05429104 75.00755058 41.76936126 75.68945312 44.484375 C76.12269851 46.21867442 76.5556529 47.95304656 76.98828125 49.6875 C77.19133377 50.49566162 77.39438629 51.30382324 77.60359192 52.13647461 C79 57.76993358 79 57.76993358 79 60 C47.98 60 16.96 60 -15 60 C-10.38853069 39.2483881 -10.38853069 39.2483881 -8.45703125 31.5625 C-8.24310226 30.70487061 -8.02917328 29.84724121 -7.8087616 28.96362305 C-7.36723049 27.19616369 -6.924561 25.4289883 -6.48071289 23.66210938 C-5.79932102 20.94749593 -5.1231149 18.2316231 -4.44726562 15.515625 C-4.01332345 13.78117426 -3.57909025 12.0467963 -3.14453125 10.3125 C-2.94350296 9.50433838 -2.74247467 8.69617676 -2.53535461 7.86352539 C-1.11503321 2.23006642 -1.11503321 2.23006642 0 0 Z " fill="#D6D6E7" transform="translate(224,406)"/>
<path d="M0 0 C6.40287374 4.18649437 10.59494461 10.78483384 13 18 C13.8109127 28.22281751 13.00711295 36.93433182 6.75 45.3125 C0.09668049 51.81460771 -7.24514388 55.24124535 -16.625 55.5 C-24.96108611 55.36782104 -31.61265075 52.79470328 -37.9375 47.32421875 C-39.49335841 45.63222272 -40.74734172 43.92461404 -42 42 C-42.40992188 41.46375 -42.81984375 40.9275 -43.2421875 40.375 C-47.5671962 33.69360725 -47.02542412 24.63893931 -46 17 C-43.91342437 9.42294193 -39.30779876 4.47000025 -33 0 C-32.41734375 -0.43441406 -31.8346875 -0.86882812 -31.234375 -1.31640625 C-22.05975494 -7.04057137 -9.00406522 -5.13791292 0 0 Z " fill="#B0F4FD" transform="translate(180,187)"/>
<path d="M0 0 C5.35360069 4.20143431 8.99773083 8.93537048 10.85546875 15.52734375 C11.85663977 24.3341048 11.91257771 32.89426991 6.85546875 40.52734375 C6.44296875 41.16027344 6.03046875 41.79320312 5.60546875 42.4453125 C1.14295178 48.39110926 -5.22569142 51.22106381 -12.14453125 53.52734375 C-21.29068245 54.35989327 -28.49228845 53.84747446 -36.14453125 48.52734375 C-39.01953125 46.02734375 -39.01953125 46.02734375 -41.14453125 43.52734375 C-41.84578125 42.76421875 -42.54703125 42.00109375 -43.26953125 41.21484375 C-48.61399267 33.55444905 -49.25333337 25.67496125 -48.14453125 16.52734375 C-46.91778576 12.85197531 -45.26880226 9.75697671 -43.14453125 6.52734375 C-42.56703125 5.61984375 -41.98953125 4.71234375 -41.39453125 3.77734375 C-29.91014286 -7.70704464 -13.39062859 -9.19538612 0 0 Z " fill="#010202" transform="translate(390.14453125,188.47265625)"/>
<path d="M0 0 C3.73325038 2.51422985 4.74796824 4.13364082 6 8.4375 C6 12.53094236 5.22004022 14.59065251 3 18 C-1.25929566 20.83953044 -5.00382943 20.73987876 -10 20 C-13.125 18.125 -13.125 18.125 -15 15 C-15.98876625 9.97377154 -15.7769173 6.29486216 -13.125 1.875 C-8.71888247 -0.76867052 -5.01279217 -1.01243586 0 0 Z " fill="#000000" transform="translate(141,466)"/>
<path d="M0 0 C3.26148486 2.02212062 4.61107876 3.35989801 5.50390625 7.125 C5.76945587 10.46979516 5.58436513 12.95876759 3.92578125 15.9140625 C1.85837383 18.30432533 0.07040116 19.71205583 -3.00390625 20.5390625 C-6.81990842 20.81422015 -8.8246872 20.12957903 -11.875 17.875 C-14.16061111 14.78270261 -15.39144011 12.80349931 -16 9 C-13.21041243 0.19077609 -8.64633676 -1.2941969 0 0 Z " fill="#040404" transform="translate(417,26)"/>
<path d="M0 0 C2.16015625 0.47265625 2.16015625 0.47265625 5.22265625 2.41015625 C7.82987325 6.53124118 8.19961479 9.72207302 7.16015625 14.47265625 C5.13010387 17.68144872 3.73716178 19.10193162 0 19.98046875 C-4.5043027 20.32637513 -6.32530335 19.89268923 -9.90234375 16.97265625 C-12.55549898 13.06225674 -12.57286273 10.0906758 -11.83984375 5.47265625 C-8.69040553 0.59610675 -5.54616529 -0.36110258 0 0 Z " fill="#AEF1F9" transform="translate(373.83984375,202.52734375)"/>
</svg>
